<svg xmlns="http://www.w3.org/2000/svg" width="153" height="36.828" viewBox="0 0 153 36.828">
  <g id="Group_5" data-name="Group 5" transform="translate(-23.626 -20)">
    <g id="Group_3" data-name="Group 3">
      <g id="Group_1" data-name="Group 1">
        <path id="Path_1" data-name="Path 1" d="M67.445,28.782H77.553a9.856,9.856,0,0,1,3.183.453,5.582,5.582,0,0,1,2.195,1.324,4.363,4.363,0,0,1,.931,1.381,4.546,4.546,0,0,1,.336,1.807V33.8a4.285,4.285,0,0,1-.856,2.78A5.554,5.554,0,0,1,81.17,38.2a6.784,6.784,0,0,1,2.87,1.71A4.324,4.324,0,0,1,85.1,43.026v.056a4.684,4.684,0,0,1-1.957,4.006,9.19,9.19,0,0,1-5.515,1.439H67.445Zm8.771,7.869a3.61,3.61,0,0,0,1.931-.422,1.437,1.437,0,0,0,.667-1.3v-.054a1.448,1.448,0,0,0-.623-1.258,3.25,3.25,0,0,0-1.859-.437H72.777v3.47Zm.791,7.476a3.448,3.448,0,0,0,1.947-.464,1.534,1.534,0,0,0,.675-1.341v-.056a1.528,1.528,0,0,0-.645-1.3,3.444,3.444,0,0,0-2.032-.481H72.777v3.64Z" fill="#5f6062"/>
        <path id="Path_2" data-name="Path 2" d="M94.467,27.934h5.389V48.527H94.467Z" fill="#5f6062"/>
        <path id="Path_3" data-name="Path 3" d="M102.223,27.934h5.389V48.527h-5.389Z" fill="#5f6062"/>
        <path id="Path_4" data-name="Path 4" d="M110.174,28.782h7.617a14.39,14.39,0,0,1,4.727.721,9.931,9.931,0,0,1,3.5,2.014,8.6,8.6,0,0,1,2.172,3.09,10.062,10.062,0,0,1,.751,3.936V38.6a10.112,10.112,0,0,1-.767,3.963,8.808,8.808,0,0,1-2.2,3.143,10.223,10.223,0,0,1-3.543,2.075,14.08,14.08,0,0,1-4.754.747h-7.5Zm7.713,14.893a5.834,5.834,0,0,0,3.961-1.3,4.606,4.606,0,0,0,1.5-3.693v-.057a4.614,4.614,0,0,0-1.5-3.678,5.776,5.776,0,0,0-3.961-1.313h-2.238v10.04Z" fill="#5f6062"/>
        <path id="Path_5" data-name="Path 5" d="M138.3,48.891a9.092,9.092,0,0,1-3.3-.577,7.755,7.755,0,0,1-2.582-1.6,7.17,7.17,0,0,1-1.692-2.5,8.4,8.4,0,0,1-.608-3.242v-.055a8.612,8.612,0,0,1,.564-3.121,7.711,7.711,0,0,1,1.6-2.536,7.386,7.386,0,0,1,2.442-1.708,7.634,7.634,0,0,1,3.1-.62,8.044,8.044,0,0,1,3.425.678,6.761,6.761,0,0,1,2.4,1.82,7.608,7.608,0,0,1,1.411,2.649,10.787,10.787,0,0,1,.467,3.2v.536a5.293,5.293,0,0,1-.03.562H135.281a3.123,3.123,0,0,0,1.171,1.891,3.533,3.533,0,0,0,2.13.621,4.144,4.144,0,0,0,1.764-.37,5.63,5.63,0,0,0,1.621-1.181l2.962,2.452a7.929,7.929,0,0,1-6.631,3.1Zm2.2-9.247a3.349,3.349,0,0,0-.851-2.019,2.361,2.361,0,0,0-1.806-.748,2.239,2.239,0,0,0-1.743.748,3.919,3.919,0,0,0-.9,2.019Z" fill="#5f6062"/>
        <path id="Path_6" data-name="Path 6" d="M153.16,48.861a13.058,13.058,0,0,1-3.777-.547,11.539,11.539,0,0,1-3.439-1.7l2-3.242a11.019,11.019,0,0,0,2.692,1.309,8.381,8.381,0,0,0,2.552.435c.907,0,1.351-.27,1.351-.815v-.059q0-.45-.614-.7a17.958,17.958,0,0,0-1.838-.593,17.555,17.555,0,0,1-2.116-.666,7.139,7.139,0,0,1-1.721-.928,3.846,3.846,0,0,1-1.577-3.286v-.057a4.82,4.82,0,0,1,.466-2.157,4.5,4.5,0,0,1,1.285-1.581,6.01,6.01,0,0,1,1.932-.973,8.34,8.34,0,0,1,2.438-.336,12.06,12.06,0,0,1,3.327.463,11.084,11.084,0,0,1,2.962,1.312l-1.831,3.385a13.443,13.443,0,0,0-2.4-1.029,7.306,7.306,0,0,0-2.118-.38,1.65,1.65,0,0,0-.931.212.621.621,0,0,0-.31.521V37.5c0,.3.21.54.636.72s1.035.388,1.846.633q1.125.312,2.118.692a7.113,7.113,0,0,1,1.721.931,4.033,4.033,0,0,1,1.151,1.34A3.919,3.919,0,0,1,159.4,43.7v.054a5.105,5.105,0,0,1-.45,2.218,4.515,4.515,0,0,1-1.271,1.591,5.547,5.547,0,0,1-1.972.975A9.5,9.5,0,0,1,153.16,48.861Z" fill="#5f6062"/>
        <path id="Path_7" data-name="Path 7" d="M160.887,27.934h5.39V38.37l4.144-5.1h6.065l-5.3,6.12,5.445,9.141h-5.9l-3.073-5.19-1.381,1.607v3.583h-5.39Z" fill="#5f6062"/>
      </g>
      <g id="Group_2" data-name="Group 2">
        <path id="Path_8" data-name="Path 8" d="M92.1,30.444v-2.51H86.711v5.392Z" fill="#f37321"/>
        <path id="Path_9" data-name="Path 9" d="M86.711,36.437v12.09H92.1V31.5Z" fill="#5f6062"/>
      </g>
    </g>
    <g id="Group_4" data-name="Group 4">
      <path id="Path_10" data-name="Path 10" d="M40.06,26.415l-4.348,2.509v4.734l4.348-2.512,6.289,3.633v7.264L40.06,45.675l-6.291-3.631V27.823l5.317-3.088V20L23.626,28.928V47.9l15.459,8.925V52.094l-11.36-6.555V31.3l1.942-1.122V44.41l10.393,6,10.391-6v-12Z" fill="#f37321"/>
      <path id="Path_11" data-name="Path 11" d="M41.032,20v4.734L52.394,31.29V45.531L41.032,52.094v4.734L56.5,47.9V28.923Z" fill="#5f6062"/>
    </g>
  </g>
</svg>
